<svg width="686" height="558" viewBox="0 0 686 558" fill="none" xmlns="http://www.w3.org/2000/svg">
<path d="M768.34 -52.1236C760.227 -172.16 788.857 -286.344 848.839 -373.67L853.629 -380.657L846.777 -385.579C766.803 -443.341 668.359 -471.512 569.695 -464.873C470.979 -458.242 377.255 -417.147 305.731 -349.117L299.574 -343.286L305.277 -337.049C376.454 -258.65 420.144 -149.361 428.279 -29.2838C436.324 90.9644 407.735 205.163 347.727 292.215L342.928 299.211L349.792 304.144C429.701 361.913 528.103 390.084 626.931 383.477C725.646 376.846 819.401 335.74 890.843 267.712L896.939 261.849L891.279 255.629C820.151 177.326 776.47 68.045 768.34 -52.1236ZM872.765 260.847C805.098 322.654 717.502 360.047 625.761 366.188C533.92 372.316 442.073 347.053 366.814 294.985C425.681 205.623 453.65 90.2115 445.516 -30.4337C437.393 -151 394.163 -261.583 323.805 -342.307C391.545 -404.089 479.123 -441.46 570.851 -447.612C662.571 -453.771 754.378 -428.486 829.811 -376.398C770.871 -286.886 742.923 -171.479 751.039 -50.9664C759.219 69.6869 802.428 180.269 872.765 260.847Z" fill="white"/>
<path d="M808.306 -53.881C815.382 55.0594 853.708 154.043 916.223 224.742L922.837 232.206L929.178 224.477C997.228 141.759 1030.92 37.5271 1024.04 -68.9701C1017.15 -175.311 970.301 -273.909 892.063 -346.681L884.762 -353.458L879.196 -345.166C826.352 -266.366 801.204 -162.939 808.306 -53.881ZM887.787 -327.182C958.347 -258.132 1000.69 -166.186 1007.04 -67.7832C1013.43 30.8557 983.375 127.818 922.397 205.769C867.114 139.217 831.765 44.4257 825.282 -55.0745C818.774 -154.654 841.563 -253.543 887.787 -327.182Z" fill="white"/>
<path d="M311.775 271.994L307.193 267.742C228.314 194.597 180.872 95.2228 173.625 -12.0749C166.402 -119.352 200.053 -224.249 268.411 -307.399L272.384 -312.164L276.486 -307.498C339.569 -236.063 378.411 -136.231 385.867 -26.4174C393.128 81.8842 367.381 188.749 315.192 266.802L311.775 271.994ZM272.655 -295.742C208.68 -215.498 177.308 -115.254 184.215 -12.7825C191.127 89.7257 235.689 184.855 309.864 255.694C358.479 180.039 382.298 77.9431 375.315 -25.6558C368.293 -129.21 330.96 -227.229 272.655 -295.742Z" fill="white"/>
<path d="M311.775 271.994L304.438 265.208C226.288 192.774 179.33 94.3556 172.168 -11.9742C164.989 -118.261 198.378 -222.117 266.053 -304.488L272.384 -312.164L279.004 -304.666C341.477 -233.934 379.939 -135.158 387.292 -26.4621C394.468 80.6402 368.95 186.396 317.279 263.689L311.775 271.994ZM272.582 -302.01L271.154 -300.292C204.479 -219.232 171.679 -117.018 178.729 -12.397C185.766 92.1972 232.013 189.103 308.923 260.397L310.526 261.891L311.784 260.046C362.679 183.94 387.81 79.6757 380.698 -26.0261C373.443 -133.276 335.561 -230.665 274.047 -300.334L272.582 -302.01ZM309.885 256.073L306.992 253.342C233.577 183.178 189.352 88.6954 182.521 -12.6803C175.712 -114.016 206.864 -213.598 270.208 -293.041L272.676 -296.164L275.283 -293.104C332.958 -225.335 369.983 -127.908 376.922 -25.8021C383.784 76.367 360.147 177.83 312.055 252.731L309.885 256.073ZM272.84 -285.78C212.201 -208.133 182.486 -111.496 189.084 -13.1227C195.741 85.266 238.151 177.042 308.631 245.762C354.543 172.413 376.988 73.8959 370.308 -25.3675C363.62 -124.55 328.169 -219.142 272.84 -285.78Z" fill="white"/>
</svg>
