<svg width="10" height="10" viewBox="0 0 10 10" fill="none" xmlns="http://www.w3.org/2000/svg">
<path d="M6.13757 3.86345C5.33488 3.061 4.82956 2.07208 4.71367 1.07938L4.70434 1L4.6251 1.00756C3.69841 1.09358 2.82415 1.50447 2.1644 2.16404C1.50423 2.82386 1.09344 3.69756 1.00756 4.62483L1 4.70447L1.07923 4.71338C2.07153 4.82857 3.06027 5.33384 3.86337 6.13644C4.66689 6.94081 5.1726 7.92958 5.28659 8.92051L5.29593 9L5.37531 8.99244C6.30159 8.90687 7.17555 8.49624 7.83666 7.83589C8.49683 7.17606 8.90777 6.3021 8.99309 5.37536L9 5.29587L8.92118 5.28681C7.92983 5.17199 6.94121 4.66672 6.13757 3.86345ZM8.82204 5.43879C8.72493 6.29791 8.33469 7.10727 7.72104 7.72032C7.10659 8.3339 6.29725 8.72451 5.43939 8.82172C5.30295 7.82146 4.78531 6.82792 3.97869 6.02128C3.17264 5.21514 2.17914 4.69782 1.17823 4.56102C1.27601 3.70164 1.66625 2.89254 2.27976 2.27949C2.89315 1.66644 3.70234 1.27625 4.56155 1.17809C4.69841 2.17987 5.21616 3.17325 6.02184 3.97906C6.82884 4.78547 7.82219 5.3029 8.82204 5.43879Z" fill="#599255" stroke="#599255" stroke-width="0.25"/>
<path d="M6.34806 3.65295C7.09206 4.39704 8.00014 4.87134 8.90444 4.98779L9 5L8.997 4.90391C8.96633 3.87444 8.54888 2.90655 7.82183 2.17891C7.09573 1.45245 6.12807 1.03489 5.09621 1.00288L5 1L5.01221 1.09525C5.12863 2.00016 5.60312 2.90818 6.34806 3.65295ZM5.18904 1.17113C6.14138 1.22475 7.034 1.62264 7.70568 2.29506C8.37925 2.96885 8.7769 3.86113 8.82874 4.81135C8.00344 4.67916 7.14367 4.2164 6.46399 3.53692C5.78363 2.85703 5.32082 1.99679 5.18904 1.17113Z" fill="#599255" stroke="#599255" stroke-width="0.25"/>
<path d="M5 9L4.93964 8.99819C3.90073 8.96739 2.92384 8.54592 2.18904 7.81128C1.45454 7.07663 1.03257 6.09948 1.00139 5.05992L1 5L1.05951 5.00787C1.97261 5.12664 2.88984 5.60611 3.64216 6.35773C4.38345 7.09959 4.87542 8.04082 4.99186 8.9405L5 9ZM1.10636 5.11777C1.15097 6.10831 1.55994 7.03712 2.26159 7.73881C2.96351 8.44073 3.89247 8.84963 4.88249 8.89354C4.75528 8.03403 4.27959 7.13976 3.57022 6.43035C2.86085 5.72152 1.96613 5.24564 1.10636 5.11777Z" fill="#599255" stroke="#599255" stroke-width="0.25"/>
<path d="M5 9L4.90348 8.99727C3.8744 8.96701 2.9071 8.54941 2.17907 7.82127C1.45119 7.09355 1.03394 6.12564 1.00273 5.09609L1 5L1.09583 5.01248C2.00003 5.13 2.90779 5.60421 3.65224 6.34835C4.38528 7.08203 4.87189 8.01373 4.98726 8.90459L5 9ZM1.06599 5.07262L1.06652 5.0942C1.09667 6.10785 1.50777 7.06007 2.22412 7.77649C2.94021 8.49279 3.89272 8.90391 4.90553 8.93375L4.92669 8.93443L4.92411 8.91301C4.81064 8.03572 4.33071 7.11733 3.60704 6.39344C2.87248 5.6592 1.97777 5.19139 1.0873 5.0755L1.06599 5.07262ZM4.88505 8.89617L4.84663 8.89469C3.86644 8.85085 2.94404 8.44452 2.24991 7.75032C1.5562 7.05628 1.14984 6.13367 1.10573 5.15298L1.10384 5.11456L1.14225 5.12025C1.99271 5.24672 2.88143 5.72025 3.58098 6.41907C4.28038 7.11885 4.75338 8.00736 4.87959 8.85806L4.88505 8.89617ZM1.17104 5.18908C1.22341 6.13951 1.62151 7.03155 2.29485 7.70538C2.96873 8.37895 3.86071 8.77713 4.81038 8.82912C4.67817 8.00356 4.21523 7.14407 3.53563 6.46428C2.85648 5.78513 1.99722 5.32222 1.17104 5.18908Z" fill="#599255" stroke="#599255" stroke-width="0.25"/>
</svg>
