<svg width="52" height="52" viewBox="0 0 52 52" fill="none" xmlns="http://www.w3.org/2000/svg">
<path d="M37.9241 0H14.0759C6.31433 0 0 6.31433 0 14.0759V37.9245C0 45.6857 6.31433 52 14.0759 52H37.9245C45.6857 52 52 45.6857 52 37.9245V14.0759C52 6.31433 45.6857 0 37.9241 0V0ZM48.9515 37.9245C48.9515 44.0047 44.0047 48.9515 37.9241 48.9515H14.0759C7.99527 48.9515 3.04846 44.0047 3.04846 37.9245V14.0759C3.04846 7.99527 7.99527 3.04846 14.0759 3.04846H37.9245C44.0047 3.04846 48.9515 7.99527 48.9515 14.0759V37.9245Z" fill="white"/>
<path d="M26.0001 11.6553C18.0902 11.6553 11.6553 18.0902 11.6553 26.0001C11.6553 33.91 18.0902 40.3449 26.0001 40.3449C33.91 40.3449 40.3449 33.91 40.3449 26.0001C40.3449 18.0902 33.91 11.6553 26.0001 11.6553ZM26.0001 37.2693C19.7865 37.2693 14.7309 32.2141 14.7309 26.0001C14.7309 19.7865 19.7865 14.7309 26.0001 14.7309C32.2141 14.7309 37.2693 19.7865 37.2693 26.0001C37.2693 32.2141 32.2141 37.2693 26.0001 37.2693Z" fill="white"/>
<path d="M40.7921 6.27588C38.5673 6.27588 36.7578 8.28689 36.7578 10.7584C36.7578 13.2304 38.5673 15.2414 40.7921 15.2414C43.0169 15.2414 44.8268 13.2304 44.8268 10.7584C44.8268 8.28646 43.0169 6.27588 40.7921 6.27588ZM40.7921 11.9885C40.1818 11.9885 39.6851 11.4365 39.6851 10.7584C39.6851 10.0799 40.1818 9.52837 40.7921 9.52837C41.4028 9.52837 41.8995 10.0799 41.8995 10.7584C41.8995 11.4365 41.4028 11.9885 40.7921 11.9885Z" fill="white"/>
</svg>
