<svg width="175" height="63" viewBox="0 0 175 63" fill="none" xmlns="http://www.w3.org/2000/svg">
<path d="M10.8812 31.3697C11.1113 31.3697 11.2428 31.4674 11.2428 31.6955C11.2428 31.9236 11.1113 32.054 10.8812 32.054H0.36161C0.197242 32.054 0.0986208 32.0214 0.0657471 31.9562C0.0328735 31.891 0 31.8259 0 31.7281V14.9792C0 14.7511 0.131495 14.6533 0.36161 14.6533C0.591725 14.6533 0.690346 14.7511 0.690346 14.9792V31.3697H10.8812Z" fill="white"/>
<path d="M13.7412 14.9792C13.7412 14.7511 13.8727 14.6533 14.1028 14.6533C14.3329 14.6533 14.4316 14.7511 14.4316 14.9792V31.7281C14.4316 31.9562 14.3329 32.0865 14.1028 32.0865C13.8727 32.0865 13.7412 31.9562 13.7412 31.7281V14.9792Z" fill="white"/>
<path d="M30.112 14.6532C30.375 14.6532 30.5065 14.7509 30.5065 14.979C30.5065 15.2071 30.375 15.3375 30.112 15.3375H24.1948V31.728C24.1948 31.9561 24.0962 32.0864 23.8661 32.0864C23.6359 32.0864 23.5044 31.9561 23.5044 31.728V15.3049H17.5543C17.3242 15.3049 17.2256 15.1746 17.2256 14.9465C17.2256 14.7184 17.3242 14.6206 17.5543 14.6206H30.112V14.6532Z" fill="white"/>
<path d="M45.9902 14.8164C46.0231 14.6861 46.0889 14.6209 46.1546 14.5883C46.2204 14.5557 46.319 14.5557 46.4176 14.6209C46.6477 14.6861 46.7135 14.8164 46.6477 15.0445L39.5141 31.9238C39.4484 32.0541 39.3498 32.1193 39.1854 32.1193C39.1197 32.1519 39.021 32.1193 38.9553 32.0867C38.8895 32.0541 38.8567 31.9889 38.8238 31.8586L31.7231 15.0771C31.6245 14.849 31.6902 14.7186 31.9203 14.6535C32.1176 14.5557 32.2819 14.5883 32.3477 14.7838L39.1854 30.9462L45.9902 14.8164Z" fill="white"/>
<path d="M49.1133 14.9792C49.1133 14.7511 49.2448 14.6533 49.4749 14.6533C49.705 14.6533 49.8036 14.7511 49.8036 14.9792V31.7281C49.8036 31.9562 49.705 32.0865 49.4749 32.0865C49.2448 32.0865 49.1133 31.9562 49.1133 31.7281V14.9792Z" fill="white"/>
<path d="M67.2919 14.979C67.2919 14.7509 67.3906 14.6532 67.6207 14.6532C67.8508 14.6532 67.9823 14.7509 67.9823 14.979V31.7931C67.9494 31.9561 67.8508 32.0538 67.6536 32.0538C67.5549 32.0538 67.4892 32.0212 67.4234 32.0212C67.3577 32.0212 67.3248 31.9561 67.2919 31.9235L54.2411 16.0218V31.728C54.2411 31.9561 54.1425 32.0864 53.9124 32.0864C53.6823 32.0864 53.5508 31.9561 53.5508 31.728V14.979C53.5508 14.8813 53.5837 14.7835 53.6165 14.7184C53.6494 14.6532 53.7151 14.6206 53.8466 14.6206C53.9124 14.6206 53.9781 14.6206 54.011 14.6532C54.0439 14.6858 54.0768 14.7184 54.1425 14.7509L67.2919 30.6527V14.979Z" fill="white"/>
<path d="M83.5979 14.6533C83.8608 14.6533 83.9923 14.7511 83.9923 14.9792C83.9923 15.2073 83.8608 15.3376 83.5979 15.3376H72.4866V22.7345H81.5926C81.8556 22.7345 81.987 22.8649 81.987 23.093C81.987 23.3211 81.8556 23.4188 81.5926 23.4188H72.4866V31.4348H83.8608C84.1238 31.4348 84.2553 31.5326 84.2553 31.7607C84.2553 31.9888 84.1238 32.1191 83.8608 32.1191H72.0592C72.0263 32.1191 72.0263 32.1191 71.9935 32.1191C71.9606 32.1191 71.9606 32.1191 71.9277 32.1191V32.0865C71.862 32.054 71.8291 31.9236 71.8291 31.7933V14.9792C71.8291 14.8814 71.8291 14.8162 71.862 14.7837L71.8948 14.7511C71.9277 14.7185 71.9606 14.6859 71.9935 14.6859C72.0592 14.6533 72.125 14.6533 72.2236 14.6533C72.1907 14.6533 83.5979 14.6533 83.5979 14.6533Z" fill="white"/>
<path d="M100.166 14.979C100.166 14.7509 100.265 14.6532 100.495 14.6532C100.725 14.6532 100.856 14.7509 100.856 14.979V31.7931C100.823 31.9561 100.725 32.0538 100.528 32.0538C100.429 32.0538 100.363 32.0212 100.297 32.0212C100.232 32.0212 100.199 31.9561 100.166 31.9235L87.1152 16.0218V31.728C87.1152 31.9561 87.0165 32.0864 86.7864 32.0864C86.5563 32.0864 86.4248 31.9561 86.4248 31.728V14.979C86.4248 14.8813 86.4577 14.7835 86.4905 14.7184C86.5234 14.6532 86.5892 14.6206 86.7207 14.6206C86.7864 14.6206 86.8522 14.6206 86.885 14.6532C86.9179 14.6858 86.9508 14.7184 87.0165 14.7509L100.166 30.6527V14.979Z" fill="white"/>
<path d="M115.616 14.7837C115.748 14.6533 115.945 14.6207 116.109 14.7511C116.241 14.914 116.274 15.0769 116.142 15.2073L109.83 21.8547L117.95 31.4348C118.115 31.6304 118.082 31.7933 117.917 31.9236C117.72 32.054 117.556 32.054 117.457 31.891L109.403 22.3435L105.294 26.6448V31.7281C105.294 31.9562 105.195 32.0865 104.965 32.0865C104.735 32.0865 104.604 31.9562 104.604 31.7281V14.9792C104.604 14.7511 104.735 14.6533 104.965 14.6533C105.195 14.6533 105.294 14.7511 105.294 14.9792V25.7324L115.616 14.7837Z" fill="white"/>
<path d="M119.824 23.3862C119.824 22.5716 119.923 21.7895 120.153 21.04C120.383 20.2906 120.646 19.5737 121.073 18.922C121.468 18.2703 121.928 17.6512 122.454 17.1298C122.98 16.6084 123.605 16.1196 124.262 15.7612C124.92 15.3702 125.643 15.0769 126.399 14.8488C127.155 14.6207 127.944 14.5229 128.766 14.5229C129.588 14.5229 130.377 14.6207 131.133 14.8488C131.889 15.0769 132.612 15.3376 133.27 15.7612C133.927 16.1522 134.552 16.6084 135.078 17.1298C135.604 17.6512 136.097 18.2703 136.458 18.922C136.853 19.5737 137.149 20.2906 137.379 21.04C137.609 21.7895 137.707 22.5716 137.707 23.3862C137.707 24.2008 137.609 24.9829 137.379 25.7324C137.149 26.4818 136.886 27.1987 136.458 27.8504C136.064 28.5021 135.604 29.1212 135.078 29.6426C134.552 30.164 133.927 30.6528 133.27 31.0112C132.612 31.4022 131.889 31.6955 131.133 31.9236C130.377 32.1517 129.588 32.2494 128.766 32.2494C127.944 32.2494 127.155 32.1517 126.399 31.9236C125.643 31.6955 124.92 31.4348 124.262 31.0112C123.605 30.5876 122.98 30.164 122.454 29.6426C121.928 29.1212 121.435 28.5021 121.073 27.8504C120.679 27.1987 120.383 26.5144 120.153 25.7324C119.923 24.9829 119.824 24.2008 119.824 23.3862ZM120.515 23.3862C120.515 24.1357 120.613 24.8525 120.81 25.5368C121.008 26.2211 121.271 26.8728 121.632 27.492C121.994 28.0785 122.421 28.665 122.914 29.1538C123.407 29.6426 123.966 30.0662 124.591 30.4247C125.183 30.7831 125.873 31.0438 126.563 31.2393C127.254 31.4348 127.977 31.5326 128.733 31.5326C129.489 31.5326 130.212 31.4348 130.903 31.2393C131.593 31.0438 132.25 30.7831 132.875 30.4247C133.467 30.0662 134.058 29.6426 134.552 29.1538C135.045 28.665 135.505 28.1111 135.834 27.492C136.195 26.9054 136.458 26.2211 136.655 25.5368C136.853 24.8525 136.951 24.1357 136.951 23.3862C136.951 22.6367 136.853 21.9199 136.655 21.2356C136.458 20.5513 136.195 19.8996 135.834 19.2804C135.472 18.6939 135.045 18.1074 134.552 17.6186C134.058 17.1298 133.467 16.6736 132.875 16.3477C132.283 16.0219 131.593 15.7286 130.903 15.5005C130.212 15.305 129.489 15.2072 128.733 15.2072C127.977 15.2072 127.254 15.305 126.563 15.5005C125.873 15.696 125.215 15.9567 124.591 16.3477C123.999 16.7062 123.407 17.1298 122.914 17.6186C122.421 18.1074 121.994 18.6939 121.632 19.2804C121.271 19.867 121.008 20.5513 120.81 21.2356C120.613 21.8873 120.515 22.6041 120.515 23.3862Z" fill="white"/>
<path d="M143.231 62C160.224 62 174 48.3447 174 31.5C174 14.6553 160.224 1 143.231 1C126.237 1 112.461 14.6553 112.461 31.5C112.461 48.3447 126.237 62 143.231 62Z" stroke="white" stroke-width="0.75" stroke-miterlimit="10"/>
<path d="M114.302 62C131.296 62 145.072 48.3447 145.072 31.5C145.072 14.6553 131.296 1 114.302 1C97.3083 1 83.5322 14.6553 83.5322 31.5C83.5322 48.3447 97.3083 62 114.302 62Z" stroke="white" stroke-width="0.75" stroke-miterlimit="10"/>
<path d="M128.766 5.07324L112.757 32.5428H144.776L128.766 5.07324Z" stroke="white" stroke-width="0.75" stroke-miterlimit="10"/>
<path d="M7.39648 47.9879V41.0798C7.39648 40.9495 7.46223 40.8843 7.56085 40.8843H9.89488C10.388 40.8843 10.8811 40.982 11.3084 41.1775C11.7687 41.3731 12.1303 41.6337 12.459 41.9596C12.7878 42.2855 13.0507 42.6765 13.248 43.1001C13.4452 43.5563 13.5438 44.0125 13.5438 44.5338C13.5438 45.0226 13.4452 45.5114 13.248 45.935C13.0507 46.3912 12.7878 46.7497 12.459 47.0755C12.1303 47.4014 11.7358 47.6621 11.2756 47.8576C10.8153 48.0531 10.3551 48.1508 9.82913 48.1508H7.52798C7.46223 48.1508 7.39648 48.1183 7.39648 47.9879ZM7.95534 47.6295H9.862C10.2894 47.6295 10.7167 47.5317 11.0783 47.3688C11.4728 47.2059 11.8015 46.9778 12.0645 46.6845C12.3604 46.3912 12.5576 46.0654 12.722 45.7069C12.8864 45.3159 12.9521 44.9249 12.9521 44.5013C12.9521 44.0451 12.8535 43.654 12.6891 43.263C12.5248 42.9046 12.2947 42.5787 11.9988 42.2855C11.7029 42.0248 11.3742 41.7967 11.0126 41.6337C10.6181 41.4708 10.2236 41.4056 9.79626 41.4056H7.92246V47.6295H7.95534Z" fill="white"/>
<path d="M14.7275 47.988V41.0799C14.7275 40.9496 14.7933 40.917 14.9248 40.917H15.122C15.2535 40.917 15.3193 40.9822 15.3193 41.0799V47.988C15.3193 48.1184 15.2535 48.151 15.122 48.151H14.9248C14.7933 48.151 14.7275 48.1184 14.7275 47.988Z" fill="white"/>
<path d="M20.3163 47.6944C20.645 47.6944 20.9738 47.6292 21.3354 47.5315C21.6641 47.4011 21.96 47.2708 22.1572 47.1078V45.1201C22.1572 45.0224 22.2229 44.9572 22.3216 44.9572H22.5846C22.6832 44.9572 22.7489 45.0224 22.7489 45.1201V47.2708C22.7489 47.3685 22.7161 47.4011 22.6832 47.4337C22.3544 47.6618 22.0257 47.8573 21.6312 48.0202C21.2367 48.1832 20.8094 48.2483 20.382 48.2483C19.856 48.2483 19.3629 48.1506 18.9027 47.9551C18.4425 47.7596 18.048 47.4989 17.6864 47.173C17.3577 46.8472 17.0947 46.4561 16.8974 45.9999C16.7002 45.5437 16.6016 45.055 16.6016 44.5336C16.6016 44.0122 16.7002 43.5234 16.8974 43.0672C17.0947 42.611 17.3577 42.22 17.7193 41.8942C18.048 41.5683 18.4754 41.3076 18.9356 41.1121C19.3958 40.9166 19.8889 40.8188 20.4149 40.8188C20.8751 40.8188 21.2696 40.884 21.6641 41.0469C22.0586 41.1773 22.3873 41.4054 22.7161 41.6335C22.7818 41.6987 22.8147 41.7312 22.8147 41.7638C22.8147 41.7964 22.7818 41.829 22.7818 41.829L22.6174 42.0571C22.6174 42.0571 22.5846 42.0897 22.5188 42.1223C22.4859 42.1549 22.4202 42.1223 22.3544 42.0897C22.0915 41.8942 21.7627 41.7312 21.4669 41.6009C21.1381 41.4706 20.8094 41.4054 20.4149 41.4054C19.9875 41.4054 19.5602 41.5031 19.1657 41.6661C18.7712 41.829 18.4425 42.0571 18.1466 42.3504C17.8508 42.6436 17.6206 42.9695 17.4563 43.3605C17.2919 43.7515 17.1933 44.1426 17.1933 44.5988C17.1933 45.0224 17.2919 45.446 17.4563 45.837C17.6206 46.228 17.8508 46.5539 18.1466 46.8472C18.4425 47.1404 18.7712 47.3685 19.1657 47.5315C19.4616 47.5966 19.8889 47.6944 20.3163 47.6944Z" fill="white"/>
<path d="M24.0635 47.988V41.0799C24.0635 40.9496 24.1292 40.917 24.2607 40.917H24.458C24.5895 40.917 24.6552 40.9822 24.6552 41.0799V47.988C24.6552 48.1184 24.5895 48.151 24.458 48.151H24.2607C24.1292 48.151 24.0635 48.1184 24.0635 47.988Z" fill="white"/>
<path d="M25.8061 40.8843H30.9672C31.033 40.8843 31.0658 40.8843 31.0987 40.9169C31.1316 40.9495 31.1645 40.982 31.1645 41.0472V41.2753C31.1645 41.4056 31.0987 41.4382 30.9672 41.4382H28.6661V47.9553C28.6661 48.0857 28.6003 48.1183 28.5017 48.1183H28.3045C28.173 48.1183 28.1401 48.0531 28.1401 47.9553V41.4382H25.8389C25.7074 41.4382 25.6746 41.3731 25.6746 41.2427V41.0472C25.6417 40.9494 25.7074 40.8843 25.8061 40.8843Z" fill="white"/>
<path d="M33.8592 41.0146L36.7521 47.9553C36.7849 48.0205 36.7849 48.0857 36.7521 48.1183C36.7192 48.1508 36.6863 48.1834 36.6206 48.1834H36.3247C36.259 48.1834 36.1932 48.1508 36.1603 48.0531L35.47 46.3586H31.6895L30.9992 48.0531C30.9663 48.1508 30.9006 48.1834 30.8348 48.1834H30.539C30.5061 48.1834 30.4403 48.1508 30.4075 48.1183C30.3746 48.0857 30.3746 48.0205 30.4075 47.9553L33.3332 41.0146C33.3661 40.9169 33.4318 40.8843 33.4976 40.8843H33.6948C33.7934 40.8843 33.8263 40.9495 33.8592 41.0146ZM33.5962 41.7967L31.9525 45.7721H35.2728L33.5962 41.7967Z" fill="white"/>
<path d="M37.9688 48.0206V41.0799C37.9688 40.9822 38.0345 40.917 38.1331 40.917H38.3961C38.4947 40.917 38.5605 40.9822 38.5605 41.0799V47.6296H42.4724C42.6039 47.6296 42.6368 47.6948 42.6368 47.7925V48.0532C42.6368 48.151 42.5711 48.2161 42.4724 48.2161H38.1331C38.0016 48.151 37.9688 48.1184 37.9688 48.0206Z" fill="white"/>
<path d="M49.7049 41.0146L52.5978 47.9553C52.6307 48.0205 52.6307 48.0857 52.5978 48.1183C52.5649 48.1508 52.532 48.1834 52.4663 48.1834H52.1704C52.1047 48.1834 52.0389 48.1508 52.0061 48.0531L51.3157 46.3586H47.5352L46.8449 48.0531C46.812 48.1508 46.7463 48.1834 46.6805 48.1834H46.3847C46.3518 48.1834 46.286 48.1508 46.2532 48.1183C46.2203 48.0857 46.2203 48.0205 46.2532 47.9553L49.1789 41.0146C49.2118 40.9169 49.2775 40.8843 49.3433 40.8843H49.5405C49.6063 40.8843 49.672 40.9495 49.7049 41.0146ZM49.4419 41.7967L47.7982 45.7721H51.1185L49.4419 41.7967Z" fill="white"/>
<path d="M58.2524 41.4708H54.3733V48.0205C54.3733 48.0531 54.3733 48.0857 54.3404 48.1183C54.3076 48.1508 54.2747 48.1834 54.2418 48.1834H53.9788C53.8802 48.1834 53.8145 48.1183 53.8145 48.0205V41.0472C53.8145 40.9494 53.8802 40.8843 53.9788 40.8843H58.2853C58.3839 40.8843 58.4496 40.9494 58.4496 41.0472V41.3405C58.4168 41.4056 58.351 41.4708 58.2524 41.4708Z" fill="white"/>
<path d="M59.4023 48.0206V41.0799C59.4023 40.9822 59.4681 40.917 59.5667 40.917H64.3663C64.4649 40.917 64.5306 40.9496 64.5306 41.0473V41.308C64.5306 41.4058 64.4649 41.4709 64.3663 41.4709H59.9612V44.1104H63.4787C63.6102 44.1104 63.6759 44.1755 63.6759 44.2733V44.534C63.6759 44.6317 63.6102 44.6969 63.4787 44.6969H59.9612V47.6622H64.432C64.5306 47.6622 64.5964 47.6948 64.5964 47.7925V48.0858C64.5964 48.1836 64.5306 48.2161 64.432 48.2161H59.5667C59.4681 48.151 59.4023 48.1184 59.4023 48.0206Z" fill="white"/>
<path d="M71.138 47.9878V44.7292H66.3056V47.9878C66.3056 48.0855 66.2398 48.1507 66.1412 48.1507H65.8782C65.7796 48.1507 65.7139 48.0855 65.7139 47.9878V41.0797C65.7139 41.0145 65.7139 40.9819 65.7467 40.9493C65.7796 40.9167 65.8125 40.8841 65.8782 40.8841H66.1412C66.2398 40.8841 66.3056 40.9493 66.3056 41.0471V44.1427H71.138V41.0471C71.138 40.9819 71.138 40.9493 71.1709 40.9167C71.2038 40.8841 71.2366 40.8516 71.3024 40.8516H71.5654C71.664 40.8516 71.7297 40.9167 71.7297 41.0145V47.9552C71.7297 48.0529 71.664 48.1181 71.5654 48.1181H71.3024C71.2038 48.1507 71.138 48.1181 71.138 47.9878Z" fill="white"/>
<path d="M72.9793 40.8843H78.1404C78.2062 40.8843 78.2391 40.8843 78.2719 40.9169C78.3048 40.9495 78.3377 40.982 78.3377 41.0472V41.2753C78.3377 41.4056 78.2719 41.4382 78.1404 41.4382H75.8393V47.9553C75.8393 48.0857 75.7735 48.1183 75.6749 48.1183H75.4777C75.3462 48.1183 75.3133 48.0531 75.3133 47.9553V41.4382H73.0122C72.8807 41.4382 72.8478 41.3731 72.8478 41.2427V41.0472C72.8149 40.9494 72.8478 40.8843 72.9793 40.8843Z" fill="white"/>
<path d="M83.9261 47.0104C83.9589 46.9779 83.9918 46.9453 84.0576 46.9453C84.0904 46.9453 84.1562 46.9779 84.189 47.0104L84.3534 47.2385C84.3863 47.3037 84.3863 47.3363 84.3863 47.3689C84.3863 47.4015 84.3534 47.4341 84.2877 47.4666C83.9918 47.7273 83.6302 47.9228 83.2686 48.0532C82.8741 48.1835 82.4796 48.2813 82.0194 48.2813C81.4934 48.2813 81.0003 48.1835 80.5401 47.988C80.0799 47.7925 79.6854 47.5318 79.3238 47.1734C78.995 46.8475 78.6992 46.4239 78.5019 45.9677C78.3047 45.5115 78.2061 45.0227 78.2061 44.5014C78.2061 43.98 78.3047 43.4912 78.5019 43.035C78.6992 42.5788 78.9621 42.1878 79.3238 41.8619C79.6525 41.5361 80.0799 41.2754 80.5401 41.0799C81.0003 40.8844 81.4934 40.7866 82.0194 40.7866C82.4796 40.7866 82.907 40.8518 83.2686 41.0147C83.6631 41.1451 83.9918 41.3406 84.3205 41.6013C84.3863 41.6664 84.4192 41.699 84.4192 41.7316C84.4192 41.7642 84.4192 41.7968 84.3863 41.8294L84.2219 42.0575C84.2219 42.0575 84.1891 42.09 84.1233 42.1226C84.0904 42.1552 84.0247 42.1226 83.9589 42.09C83.6959 41.8945 83.3672 41.699 83.0713 41.5687C82.7426 41.4383 82.381 41.3732 82.0194 41.3732C81.592 41.3732 81.1647 41.4709 80.7702 41.6338C80.3757 41.7968 80.047 42.0249 79.7511 42.3181C79.4553 42.6114 79.2251 42.9373 79.0608 43.3283C78.8964 43.7193 78.7978 44.1103 78.7978 44.5665C78.7978 44.9901 78.8964 45.4138 79.0608 45.8048C79.2251 46.1958 79.4553 46.5217 79.7511 46.8149C80.047 47.1082 80.3757 47.3363 80.7702 47.4992C81.1647 47.6622 81.5592 47.7599 82.0194 47.7599C82.381 47.7599 82.7426 47.6947 83.0713 47.5644C83.3672 47.4015 83.6631 47.2385 83.9261 47.0104Z" fill="white"/>
<path d="M85.1101 40.8843H90.2713C90.337 40.8843 90.3699 40.8843 90.4028 40.9169C90.4357 40.9495 90.4685 40.982 90.4685 41.0472V41.2753C90.4685 41.4056 90.4028 41.4382 90.2713 41.4382H87.9701V47.9553C87.9701 48.0857 87.9044 48.1183 87.8058 48.1183H87.6085C87.477 48.1183 87.4442 48.0531 87.4442 47.9553V41.4382H85.143C85.0115 41.4382 84.9787 41.3731 84.9787 41.2427V41.0472C84.9458 40.9494 84.9787 40.8843 85.1101 40.8843Z" fill="white"/>
<path d="M91.7172 40.8843H94.6101C94.8731 40.8843 95.136 40.9169 95.3662 41.0146C95.5963 41.1124 95.7935 41.2427 95.9908 41.4056C96.1551 41.5686 96.3195 41.7641 96.4181 41.9922C96.5167 42.2203 96.5825 42.4484 96.5825 42.7416C96.5825 43.0675 96.5167 43.3608 96.3524 43.6215C96.188 43.8821 95.9908 44.1102 95.7278 44.2732C95.8921 44.3383 96.0565 44.4361 96.2209 44.5664C96.3852 44.6968 96.5167 44.8271 96.6154 44.99C96.714 45.153 96.8126 45.3159 96.8784 45.5114C96.9441 45.7069 96.977 45.9024 96.977 46.098C96.977 46.3586 96.9112 46.6193 96.8126 46.8474C96.714 47.0755 96.5825 47.3036 96.4181 47.4991C96.2538 47.6946 96.0236 47.825 95.7935 47.9227C95.5634 48.0205 95.3004 48.0857 95.0374 48.0857H91.7501C91.6514 48.0857 91.5857 48.0531 91.5857 47.9553V41.0146C91.5528 40.9495 91.6186 40.8843 91.7172 40.8843ZM95.9908 42.7742C95.9908 42.5787 95.9579 42.4158 95.8921 42.2529C95.8264 42.0899 95.7278 41.9596 95.5963 41.8293C95.4648 41.6989 95.3333 41.6337 95.1689 41.5686C95.0046 41.5034 94.8073 41.4708 94.6101 41.4708H92.1117V44.1428H94.6101C94.8073 44.1428 94.9717 44.1102 95.1361 44.0451C95.3004 43.9799 95.4648 43.8821 95.5634 43.7518C95.6949 43.6215 95.7935 43.4911 95.8593 43.3282C95.9579 43.1327 95.9908 42.9697 95.9908 42.7742ZM96.3524 46.1631C96.3524 45.9676 96.3195 45.8047 96.2538 45.6092C96.188 45.4137 96.0894 45.2833 95.9579 45.1204C95.8264 44.99 95.6949 44.8597 95.5305 44.7945C95.3662 44.6968 95.1689 44.6642 95.0046 44.6642H92.1446V47.5969H95.0046C95.2018 47.5969 95.3662 47.5643 95.5305 47.4665C95.6949 47.4014 95.8264 47.271 95.9579 47.1407C96.0894 47.0103 96.188 46.8474 96.2538 46.6845C96.3195 46.5542 96.3524 46.3586 96.3524 46.1631Z" fill="white"/>
<path d="M97.8975 44.5338C97.8975 44.0125 97.9961 43.5237 98.1933 43.0675C98.3906 42.6113 98.6535 42.2203 98.9823 41.8618C99.311 41.536 99.7055 41.2427 100.166 41.0472C100.626 40.8517 101.119 40.7539 101.645 40.7539C102.171 40.7539 102.631 40.8517 103.091 41.0472C103.552 41.2427 103.946 41.5034 104.275 41.8618C104.604 42.1877 104.867 42.6113 105.064 43.0675C105.261 43.5237 105.36 44.0125 105.36 44.5338C105.36 45.0552 105.261 45.544 105.064 45.9676C104.867 46.4238 104.604 46.8148 104.275 47.1407C103.946 47.4665 103.552 47.7272 103.091 47.9227C102.631 48.1182 102.138 48.216 101.612 48.216C101.086 48.216 100.593 48.1182 100.166 47.9227C99.7055 47.7272 99.311 47.4665 98.9823 47.1407C98.6535 46.8148 98.3906 46.4238 98.1933 45.9676C97.9961 45.544 97.8975 45.0552 97.8975 44.5338ZM98.4563 44.5338C98.4563 44.9574 98.5549 45.381 98.7193 45.7721C98.8837 46.1631 99.1138 46.4889 99.4096 46.7822C99.7055 47.0755 100.034 47.3036 100.429 47.4665C100.823 47.6294 101.218 47.7272 101.678 47.7272C102.105 47.7272 102.533 47.6294 102.927 47.4665C103.322 47.3036 103.65 47.0755 103.946 46.7822C104.242 46.4889 104.472 46.1631 104.637 45.7721C104.801 45.381 104.9 44.99 104.9 44.5338C104.9 44.1102 104.801 43.6866 104.637 43.2956C104.472 42.9045 104.242 42.5787 103.946 42.2854C103.65 41.9922 103.322 41.7641 102.927 41.6011C102.533 41.4382 102.138 41.3404 101.678 41.3404C101.251 41.3404 100.823 41.4382 100.429 41.6011C100.034 41.7641 99.7055 41.9922 99.4096 42.2854C99.1138 42.5787 98.8837 42.9045 98.7193 43.2956C98.5549 43.6866 98.4563 44.1102 98.4563 44.5338Z" fill="white"/>
</svg>
