<svg width="24" height="24" viewBox="0 0 24 24" fill="none" xmlns="http://www.w3.org/2000/svg">
<path d="M18.9778 14.8672C18.4858 14.3556 17.8923 14.0821 17.2632 14.0821C16.6393 14.0821 16.0407 14.3505 15.5284 14.8621L13.9254 16.4577C13.7935 16.3868 13.6616 16.3209 13.5348 16.2551C13.3521 16.1639 13.1797 16.0778 13.0326 15.9866C11.531 15.0343 10.1664 13.7933 8.85765 12.1876C8.22356 11.3873 7.79744 10.7136 7.488 10.0298C7.90397 9.64988 8.2895 9.25478 8.66489 8.87488C8.80693 8.73305 8.94896 8.58615 9.091 8.44433C10.1563 7.3806 10.1563 6.00283 9.091 4.93911L7.70613 3.55627C7.54888 3.39924 7.38655 3.23715 7.23436 3.07506C6.93 2.76101 6.61041 2.43683 6.28068 2.13291C5.78862 1.64663 5.20018 1.3883 4.5813 1.3883C3.96242 1.3883 3.36383 1.64663 2.85656 2.13291C2.85148 2.13797 2.85148 2.13797 2.84641 2.14304L1.12167 3.88045C0.472351 4.52881 0.102038 5.31901 0.0208737 6.23584C-0.100873 7.71492 0.335386 9.09269 0.670189 9.99432C1.49198 12.2079 2.71959 14.2593 4.55087 16.4577C6.77274 19.1069 9.4461 21.1989 12.4999 22.6729C13.6666 23.225 15.224 23.8784 16.964 23.9899C17.0705 23.9949 17.1821 24 17.2835 24C18.4554 24 19.4395 23.5796 20.2105 22.7438C20.2156 22.7337 20.2257 22.7286 20.2308 22.7185C20.4946 22.3994 20.799 22.1106 21.1186 21.8016C21.3367 21.594 21.5599 21.3762 21.778 21.1482C22.2802 20.6265 22.544 20.0186 22.544 19.3956C22.544 18.7675 22.2752 18.1647 21.7628 17.6582L18.9778 14.8672ZM20.7939 20.201C20.7888 20.2061 20.7888 20.201 20.7939 20.201C20.5961 20.4137 20.3932 20.6062 20.175 20.819C19.8453 21.133 19.5105 21.4623 19.196 21.832C18.6836 22.3791 18.08 22.6374 17.2886 22.6374C17.2125 22.6374 17.1314 22.6374 17.0553 22.6324C15.5486 22.5361 14.1486 21.9485 13.0985 21.4471C10.2273 20.0592 7.70613 18.0887 5.61108 15.5915C3.88126 13.5097 2.72466 11.5848 1.95868 9.51818C1.48691 8.25691 1.31443 7.27423 1.39052 6.34727C1.44125 5.75463 1.66953 5.26329 2.09057 4.84287L3.82038 3.11558C4.06895 2.88258 4.33274 2.75594 4.59145 2.75594C4.91103 2.75594 5.16974 2.94843 5.33207 3.11052C5.33715 3.11558 5.34222 3.12065 5.34729 3.12571C5.65673 3.41444 5.95095 3.71329 6.26039 4.03241C6.41765 4.1945 6.57998 4.35659 6.7423 4.52375L8.12717 5.90659C8.66489 6.44351 8.66489 6.93992 8.12717 7.47684C7.98006 7.62374 7.83803 7.77063 7.69091 7.91246C7.2648 8.34808 6.85898 8.75331 6.41765 9.14841C6.4075 9.15854 6.39736 9.1636 6.39228 9.17374C5.95603 9.60935 6.03719 10.0348 6.1285 10.3236C6.13357 10.3388 6.13865 10.354 6.14372 10.3692C6.50388 11.2404 7.01116 12.061 7.78223 13.0386L7.7873 13.0437C9.18738 14.7659 10.6636 16.1082 12.2919 17.1365C12.4999 17.2682 12.713 17.3745 12.9159 17.4758C13.0985 17.567 13.271 17.6531 13.4181 17.7443C13.4384 17.7544 13.4587 17.7696 13.479 17.7798C13.6514 17.8659 13.8138 17.9064 13.9812 17.9064C14.4022 17.9064 14.666 17.643 14.7522 17.5569L16.4871 15.8245C16.6596 15.6523 16.9335 15.4446 17.2531 15.4446C17.5676 15.4446 17.8263 15.6422 17.9836 15.8144C17.9887 15.8195 17.9887 15.8195 17.9937 15.8245L20.7888 18.6155C21.3113 19.1322 21.3113 19.6641 20.7939 20.201Z" fill="white"/>
<path d="M12.9725 5.7093C14.3016 5.93218 15.5089 6.56028 16.4727 7.5227C17.4365 8.48511 18.0605 9.69066 18.2888 11.0178C18.3446 11.3521 18.6337 11.5851 18.9634 11.5851C19.004 11.5851 19.0395 11.58 19.0801 11.575C19.4555 11.5142 19.7041 11.1596 19.6432 10.7848C19.3693 9.17906 18.6083 7.71518 17.4467 6.55521C16.285 5.39525 14.819 4.63545 13.2109 4.36192C12.8355 4.30114 12.4855 4.54934 12.4196 4.91911C12.3536 5.28888 12.5971 5.64852 12.9725 5.7093Z" fill="white"/>
<path d="M23.9896 10.5869C23.5381 7.94276 22.2902 5.53672 20.3727 3.62202C18.4552 1.70732 16.0456 0.461241 13.3976 0.0104252C13.0273 -0.0554243 12.6773 0.197843 12.6113 0.567613C12.5504 0.942449 12.799 1.29196 13.1744 1.35781C15.5383 1.75797 17.6942 2.87741 19.4088 4.58443C21.1234 6.29652 22.2394 8.44929 22.6402 10.8097C22.696 11.1441 22.9851 11.3771 23.3149 11.3771C23.3555 11.3771 23.391 11.372 23.4316 11.3669C23.8019 11.3112 24.0555 10.9566 23.9896 10.5869Z" fill="white"/>
</svg>
