<svg width="54" height="54" viewBox="0 0 54 54" fill="none" xmlns="http://www.w3.org/2000/svg">
<path d="M34.3942 19.6124C29.1767 14.3965 25.8921 7.96851 25.1389 1.51594L25.0782 1L24.5632 1.04911C18.5396 1.60827 12.857 4.27908 8.5686 8.56623C4.27751 12.8551 1.60736 18.5341 1.04912 24.5614L1 25.079L1.51502 25.137C7.96492 25.8857 14.3917 29.17 19.6119 34.3868C24.8348 39.6153 28.1219 46.0423 28.8629 52.4833L28.9235 53L29.4395 52.9509C35.4604 52.3947 41.141 49.7256 45.4383 45.4333C49.7294 41.1444 52.4005 35.4637 52.9551 29.4399L53 28.9232L52.4877 28.8642C46.0439 28.118 39.6178 24.8337 34.3942 19.6124ZM51.8432 29.8522C51.212 35.4364 48.6755 40.6972 44.6867 44.6821C40.6928 48.6704 35.4321 51.2093 29.8561 51.8412C28.9692 45.3395 25.6045 38.8815 20.3615 33.6383C15.1221 28.3984 8.66438 25.0358 2.15849 24.1466C2.79409 18.5606 5.33063 13.3015 9.31841 9.31669C13.3054 5.33184 18.5652 2.7956 24.1501 2.15761C25.0396 8.66912 28.4051 15.1261 33.642 20.3639C38.8874 25.6055 45.3442 28.9688 51.8432 29.8522Z" fill="#E9E9E9" stroke="white" stroke-width="0.5"/>
<path d="M36.4254 17.581C41.0754 22.2315 46.7509 25.1959 52.4027 25.9237L53 26L52.9813 25.3995C52.7895 18.9652 50.1805 12.9159 45.6364 8.36821C41.0983 3.82784 35.0505 1.21804 28.6013 1.01801L28 1L28.0763 1.59533C28.804 7.25101 31.7695 12.9261 36.4254 17.581ZM29.1815 2.06956C35.1336 2.40468 40.7125 4.89147 44.9105 9.09412C49.1203 13.3053 51.6056 18.8821 51.9296 24.8209C46.7715 23.9948 41.3979 21.1025 37.1499 16.8557C32.8977 12.6064 30.0051 7.22991 29.1815 2.06956Z" fill="#E9E9E9" stroke="white" stroke-width="0.5"/>
<path d="M26 53L25.6228 52.9887C19.1296 52.7962 13.024 50.162 8.43147 45.5705C3.84089 40.979 1.20358 34.8717 1.00868 28.3745L1 28L1.37194 28.0492C7.07881 28.7915 12.8115 31.7882 17.5135 36.4858C22.1465 41.1224 25.2214 47.0052 25.9491 52.6281L26 53ZM1.66476 28.736C1.94359 34.9269 4.49962 40.732 8.88494 45.1176C13.2719 49.5046 19.0779 52.0602 25.2655 52.3346C24.4705 46.9627 21.4975 41.3735 17.0639 36.9397C12.6303 32.5095 7.03828 29.5352 1.66476 28.736Z" fill="#E9E9E9" stroke="white" stroke-width="0.5"/>
<path d="M26 53L25.3968 52.9829C18.965 52.7938 12.9194 50.1838 8.36918 45.633C3.81992 41.0847 1.21214 35.0352 1.01707 28.6006L1 28L1.59897 28.078C7.25018 28.8125 12.9237 31.7763 17.5765 36.4272C22.158 41.0127 25.1993 46.8358 25.9204 52.4037L26 53ZM1.41243 28.4539L1.41575 28.5887C1.60418 34.9241 4.17356 40.8754 8.65077 45.3531C13.1263 49.83 19.0795 52.3994 25.4096 52.5859L25.5418 52.5902L25.5257 52.4563C24.8165 46.9733 21.8169 41.2333 17.294 36.709C12.703 32.12 7.11104 29.1962 1.54564 28.4719L1.41243 28.4539ZM25.2816 52.3511L25.0415 52.3418C18.9152 52.0678 13.1503 49.5283 8.81195 45.1895C4.47625 40.8517 1.9365 35.0855 1.66083 28.9561L1.64898 28.716L1.88909 28.7516C7.20443 29.542 12.7589 32.5016 17.1311 36.8692C21.5024 41.2428 24.4586 46.796 25.2474 52.1129L25.2816 52.3511ZM2.06899 29.1817C2.39633 35.122 4.88441 40.6972 9.09283 44.9087C13.3046 49.1185 18.8795 51.6071 24.8149 51.932C23.9886 46.7723 21.0952 41.4004 16.8477 37.1517C12.603 32.9071 7.23264 30.0139 2.06899 29.1817Z" fill="#E9E9E9" stroke="white" stroke-width="0.5"/>
</svg>
