<svg width="43" height="43" viewBox="0 0 43 43" fill="none" xmlns="http://www.w3.org/2000/svg">
<circle cx="21.5" cy="21.5" r="21" stroke="#E9E9E9"/>
<mask id="path-2-inside-1" fill="white">
<path d="M34.8515 28.4498C34.8176 28.3766 34.786 28.3159 34.7566 28.2672C34.2708 27.3909 33.3425 26.3154 31.9722 25.0402L31.9432 25.011L31.9287 24.9966L31.914 24.982H31.8993C31.2774 24.3882 30.8836 23.9889 30.7186 23.7845C30.4169 23.3951 30.3493 23.001 30.5142 22.6016C30.6307 22.2999 31.0684 21.6627 31.8263 20.6891C32.2249 20.1732 32.5406 19.7596 32.7738 19.4481C34.4553 17.2092 35.1843 15.7784 34.9606 15.1554L34.8738 15.0098C34.8154 14.9221 34.6648 14.842 34.4221 14.7688C34.1788 14.6959 33.8679 14.6838 33.4888 14.7324L29.2903 14.7615C29.2223 14.7373 29.1252 14.7396 28.9986 14.7688C28.8723 14.7981 28.809 14.8128 28.809 14.8128L28.736 14.8493L28.678 14.8933C28.6294 14.9223 28.5759 14.9734 28.5175 15.0464C28.4595 15.1192 28.4109 15.2046 28.3721 15.3019C27.915 16.4797 27.3953 17.5748 26.812 18.5871C26.4524 19.1907 26.1221 19.7138 25.8205 20.1567C25.5193 20.5995 25.2666 20.9257 25.0627 21.1349C24.8584 21.3442 24.6741 21.5119 24.5086 21.6385C24.3433 21.7653 24.2171 21.8188 24.1297 21.7992C24.0422 21.7796 23.9597 21.7602 23.8816 21.7408C23.7456 21.6531 23.6363 21.5339 23.5538 21.383C23.471 21.2322 23.4152 21.0423 23.3861 20.8135C23.3571 20.5846 23.3399 20.3877 23.335 20.2222C23.3305 20.0569 23.3326 19.823 23.3424 19.5213C23.3525 19.2194 23.3571 19.0151 23.3571 18.908C23.3571 18.5381 23.3643 18.1366 23.3787 17.7034C23.3934 17.2703 23.4053 16.9271 23.4153 16.6742C23.4252 16.4211 23.4298 16.1534 23.4298 15.8711C23.4298 15.5888 23.4126 15.3674 23.3787 15.2067C23.3452 15.0462 23.2938 14.8904 23.226 14.7394C23.1579 14.5886 23.0581 14.4719 22.9272 14.389C22.796 14.3063 22.6329 14.2406 22.4388 14.1918C21.9237 14.0751 21.2677 14.0119 20.4706 14.0021C18.6629 13.9826 17.5014 14.0996 16.9863 14.3526C16.7822 14.4596 16.5976 14.6057 16.4324 14.7905C16.2574 15.0047 16.233 15.1216 16.3594 15.1409C16.9426 15.2284 17.3555 15.4377 17.5985 15.7686L17.686 15.944C17.7541 16.0705 17.8222 16.2945 17.8902 16.6157C17.9582 16.9368 18.0021 17.2921 18.0214 17.6813C18.0699 18.392 18.0699 19.0004 18.0214 19.5064C17.9727 20.0127 17.9267 20.4069 17.8829 20.6892C17.839 20.9715 17.7734 21.2002 17.686 21.3754C17.5985 21.5506 17.5402 21.6577 17.511 21.6965C17.4818 21.7354 17.4575 21.7599 17.4382 21.7695C17.3119 21.818 17.1805 21.8427 17.0445 21.8427C16.9084 21.8427 16.7432 21.7745 16.5489 21.6381C16.3546 21.5018 16.153 21.3145 15.944 21.076C15.735 20.8374 15.4993 20.504 15.2368 20.0758C14.9745 19.6475 14.7023 19.1414 14.4205 18.5574L14.1873 18.1338C14.0415 17.8614 13.8423 17.4646 13.5896 16.9439C13.3368 16.4231 13.1133 15.9192 12.919 15.4325C12.8413 15.2281 12.7246 15.0725 12.5692 14.9654L12.4962 14.9215C12.4477 14.8826 12.3698 14.8413 12.263 14.7974C12.156 14.7534 12.0444 14.7219 11.9277 14.7025L7.9332 14.7316C7.52501 14.7316 7.24806 14.8242 7.10222 15.0092L7.04386 15.0967C7.01471 15.1454 7 15.2233 7 15.3304C7 15.4375 7.02916 15.5689 7.08752 15.7245C7.67064 17.0972 8.30477 18.4209 8.98991 19.6961C9.67506 20.9712 10.2704 21.9984 10.7757 22.7766C11.281 23.5554 11.7961 24.2905 12.321 24.9814C12.8459 25.6726 13.1933 26.1155 13.3633 26.3101C13.5335 26.505 13.6671 26.6508 13.7643 26.7481L14.1288 27.0985C14.3621 27.3321 14.7046 27.612 15.1566 27.938C15.6086 28.2642 16.1091 28.5854 16.6582 28.902C17.2074 29.2181 17.8463 29.476 18.5753 29.6755C19.3042 29.8752 20.0137 29.9554 20.7038 29.9167H22.3803C22.7203 29.8873 22.9779 29.7802 23.153 29.5954L23.211 29.5222C23.25 29.4641 23.2866 29.3739 23.3203 29.2524C23.3544 29.1307 23.3713 28.9967 23.3713 28.8509C23.3614 28.4324 23.3932 28.0553 23.4659 27.7195C23.5385 27.3838 23.6214 27.1307 23.714 26.9602C23.8066 26.7899 23.911 26.6462 24.0273 26.5297C24.1438 26.413 24.2268 26.3423 24.2756 26.3179C24.324 26.2934 24.3626 26.2768 24.3918 26.2668C24.625 26.189 24.8995 26.2644 25.2157 26.4933C25.5316 26.7221 25.8279 27.0045 26.1051 27.3402C26.3821 27.6762 26.7149 28.0532 27.1036 28.4716C27.4925 28.8903 27.8326 29.2015 28.1241 29.4062L28.4155 29.5814C28.6102 29.6983 28.8629 29.8054 29.1739 29.9027C29.4844 30 29.7565 30.0243 29.9901 29.9757L33.722 29.9174C34.0911 29.9174 34.3784 29.8562 34.5821 29.7347C34.7862 29.6131 34.9075 29.479 34.9466 29.3332C34.9856 29.1873 34.9877 29.0217 34.954 28.8365C34.9195 28.6519 34.8854 28.5227 34.8515 28.4498Z"/>
</mask>
<path d="M34.8515 28.4498C34.8176 28.3766 34.786 28.3159 34.7566 28.2672C34.2708 27.3909 33.3425 26.3154 31.9722 25.0402L31.9432 25.011L31.9287 24.9966L31.914 24.982H31.8993C31.2774 24.3882 30.8836 23.9889 30.7186 23.7845C30.4169 23.3951 30.3493 23.001 30.5142 22.6016C30.6307 22.2999 31.0684 21.6627 31.8263 20.6891C32.2249 20.1732 32.5406 19.7596 32.7738 19.4481C34.4553 17.2092 35.1843 15.7784 34.9606 15.1554L34.8738 15.0098C34.8154 14.9221 34.6648 14.842 34.4221 14.7688C34.1788 14.6959 33.8679 14.6838 33.4888 14.7324L29.2903 14.7615C29.2223 14.7373 29.1252 14.7396 28.9986 14.7688C28.8723 14.7981 28.809 14.8128 28.809 14.8128L28.736 14.8493L28.678 14.8933C28.6294 14.9223 28.5759 14.9734 28.5175 15.0464C28.4595 15.1192 28.4109 15.2046 28.3721 15.3019C27.915 16.4797 27.3953 17.5748 26.812 18.5871C26.4524 19.1907 26.1221 19.7138 25.8205 20.1567C25.5193 20.5995 25.2666 20.9257 25.0627 21.1349C24.8584 21.3442 24.6741 21.5119 24.5086 21.6385C24.3433 21.7653 24.2171 21.8188 24.1297 21.7992C24.0422 21.7796 23.9597 21.7602 23.8816 21.7408C23.7456 21.6531 23.6363 21.5339 23.5538 21.383C23.471 21.2322 23.4152 21.0423 23.3861 20.8135C23.3571 20.5846 23.3399 20.3877 23.335 20.2222C23.3305 20.0569 23.3326 19.823 23.3424 19.5213C23.3525 19.2194 23.3571 19.0151 23.3571 18.908C23.3571 18.5381 23.3643 18.1366 23.3787 17.7034C23.3934 17.2703 23.4053 16.9271 23.4153 16.6742C23.4252 16.4211 23.4298 16.1534 23.4298 15.8711C23.4298 15.5888 23.4126 15.3674 23.3787 15.2067C23.3452 15.0462 23.2938 14.8904 23.226 14.7394C23.1579 14.5886 23.0581 14.4719 22.9272 14.389C22.796 14.3063 22.6329 14.2406 22.4388 14.1918C21.9237 14.0751 21.2677 14.0119 20.4706 14.0021C18.6629 13.9826 17.5014 14.0996 16.9863 14.3526C16.7822 14.4596 16.5976 14.6057 16.4324 14.7905C16.2574 15.0047 16.233 15.1216 16.3594 15.1409C16.9426 15.2284 17.3555 15.4377 17.5985 15.7686L17.686 15.944C17.7541 16.0705 17.8222 16.2945 17.8902 16.6157C17.9582 16.9368 18.0021 17.2921 18.0214 17.6813C18.0699 18.392 18.0699 19.0004 18.0214 19.5064C17.9727 20.0127 17.9267 20.4069 17.8829 20.6892C17.839 20.9715 17.7734 21.2002 17.686 21.3754C17.5985 21.5506 17.5402 21.6577 17.511 21.6965C17.4818 21.7354 17.4575 21.7599 17.4382 21.7695C17.3119 21.818 17.1805 21.8427 17.0445 21.8427C16.9084 21.8427 16.7432 21.7745 16.5489 21.6381C16.3546 21.5018 16.153 21.3145 15.944 21.076C15.735 20.8374 15.4993 20.504 15.2368 20.0758C14.9745 19.6475 14.7023 19.1414 14.4205 18.5574L14.1873 18.1338C14.0415 17.8614 13.8423 17.4646 13.5896 16.9439C13.3368 16.4231 13.1133 15.9192 12.919 15.4325C12.8413 15.2281 12.7246 15.0725 12.5692 14.9654L12.4962 14.9215C12.4477 14.8826 12.3698 14.8413 12.263 14.7974C12.156 14.7534 12.0444 14.7219 11.9277 14.7025L7.9332 14.7316C7.52501 14.7316 7.24806 14.8242 7.10222 15.0092L7.04386 15.0967C7.01471 15.1454 7 15.2233 7 15.3304C7 15.4375 7.02916 15.5689 7.08752 15.7245C7.67064 17.0972 8.30477 18.4209 8.98991 19.6961C9.67506 20.9712 10.2704 21.9984 10.7757 22.7766C11.281 23.5554 11.7961 24.2905 12.321 24.9814C12.8459 25.6726 13.1933 26.1155 13.3633 26.3101C13.5335 26.505 13.6671 26.6508 13.7643 26.7481L14.1288 27.0985C14.3621 27.3321 14.7046 27.612 15.1566 27.938C15.6086 28.2642 16.1091 28.5854 16.6582 28.902C17.2074 29.2181 17.8463 29.476 18.5753 29.6755C19.3042 29.8752 20.0137 29.9554 20.7038 29.9167H22.3803C22.7203 29.8873 22.9779 29.7802 23.153 29.5954L23.211 29.5222C23.25 29.4641 23.2866 29.3739 23.3203 29.2524C23.3544 29.1307 23.3713 28.9967 23.3713 28.8509C23.3614 28.4324 23.3932 28.0553 23.4659 27.7195C23.5385 27.3838 23.6214 27.1307 23.714 26.9602C23.8066 26.7899 23.911 26.6462 24.0273 26.5297C24.1438 26.413 24.2268 26.3423 24.2756 26.3179C24.324 26.2934 24.3626 26.2768 24.3918 26.2668C24.625 26.189 24.8995 26.2644 25.2157 26.4933C25.5316 26.7221 25.8279 27.0045 26.1051 27.3402C26.3821 27.6762 26.7149 28.0532 27.1036 28.4716C27.4925 28.8903 27.8326 29.2015 28.1241 29.4062L28.4155 29.5814C28.6102 29.6983 28.8629 29.8054 29.1739 29.9027C29.4844 30 29.7565 30.0243 29.9901 29.9757L33.722 29.9174C34.0911 29.9174 34.3784 29.8562 34.5821 29.7347C34.7862 29.6131 34.9075 29.479 34.9466 29.3332C34.9856 29.1873 34.9877 29.0217 34.954 28.8365C34.9195 28.6519 34.8854 28.5227 34.8515 28.4498Z" stroke="white" stroke-width="1.86739" mask="url(#path-2-inside-1)"/>
</svg>
