<svg width="16" height="16" viewBox="0 0 16 16" fill="none" xmlns="http://www.w3.org/2000/svg">
<path d="M13.7274 2.27258C12.2618 0.807007 10.3137 0 8.24097 0C8.24085 0 8.24036 0 8.24024 0C7.21509 0.00012207 6.21607 0.198608 5.27112 0.590088C4.32605 0.981567 3.47937 1.54761 2.7544 2.27258C1.28894 3.73804 0.481935 5.68652 0.481935 7.75903C0.481935 8.995 0.780153 10.2233 1.34522 11.3176L0.0410175 15.0435C-0.0509015 15.3063 0.014162 15.5919 0.211183 15.7888C0.349001 15.9268 0.530397 16 0.716921 16C0.796877 16 0.877687 15.9866 0.956545 15.959L4.68237 14.6549C5.77673 15.22 7.00501 15.5182 8.24097 15.5182C10.3135 15.5182 12.2618 14.7111 13.7274 13.2456C15.1929 11.7802 16 9.83167 16 7.75916C16 5.68652 15.193 3.73804 13.7274 2.27258ZM13.0638 12.582C11.7756 13.8704 10.0627 14.5797 8.24097 14.5797C7.12647 14.5797 6.01929 14.3041 5.03906 13.7823C4.86133 13.6879 4.65125 13.6716 4.46265 13.7377L1.07764 14.9224L2.26245 11.5374C2.32849 11.3485 2.31214 11.1384 2.21765 10.9608C1.69605 9.98083 1.42029 8.87366 1.42029 7.75903C1.42029 5.93726 2.12976 4.22437 3.41797 2.93616C4.70606 1.64807 6.4187 0.938599 8.24036 0.938354H8.24097C10.0629 0.938354 11.7756 1.64783 13.0638 2.93616C14.3522 4.22437 15.0616 5.93713 15.0616 7.75903C15.0616 9.58093 14.3522 11.2938 13.0638 12.582Z" fill="#E9E9E9"/>
<path d="M10.8835 8.65755C10.5301 8.30414 9.95503 8.30414 9.60165 8.65755L9.21515 9.04407C8.25542 8.52109 7.47879 7.74442 6.95572 6.78464L7.34222 6.39811C7.69573 6.04471 7.69573 5.46964 7.34222 5.11623L6.30068 4.07463C5.94729 3.72122 5.37225 3.72122 5.01887 4.07463L4.18568 4.90786C3.70842 5.38515 3.68461 6.2057 4.11861 7.21842C4.49544 8.0977 5.18505 9.06413 6.06041 9.93955C6.93578 10.815 7.90215 11.5046 8.78139 11.8815C9.26252 12.0877 9.70014 12.1905 10.0783 12.1905C10.4961 12.1905 10.8413 12.0649 11.0918 11.8144L11.925 10.981V10.9812C12.0963 10.8099 12.1905 10.5823 12.1905 10.3402C12.1905 10.098 12.0963 9.87042 11.925 9.69927L10.8835 8.65755ZM10.4348 11.1574C10.2986 11.2936 9.87974 11.3413 9.14747 11.0276C8.37422 10.6962 7.51118 10.0764 6.71739 9.28253C5.9236 8.4887 5.30397 7.62573 4.97258 6.85244C4.65872 6.12013 4.70645 5.70109 4.84266 5.56488L5.65989 4.7476L6.66929 5.75717L6.1855 6.24111C5.96675 6.45988 5.91394 6.79165 6.05425 7.06673C6.69032 8.31405 7.68582 9.30961 8.93306 9.94572C9.20826 10.086 9.54001 10.0333 9.75876 9.81446L10.2426 9.33064L11.2521 10.3402L10.4348 11.1574Z" fill="#E9E9E9"/>
</svg>
