<svg width="685" height="351" viewBox="0 0 685 351" fill="none" xmlns="http://www.w3.org/2000/svg">
<path d="M159.394 -386.857C44.1394 -421.366 -52.7466 -488.23 -113.483 -575.032L-118.346 -581.969L-125.359 -577.279C-207.504 -522.648 -268.417 -440.341 -296.809 -345.617C-325.227 -250.848 -319.619 -148.664 -281 -57.8212L-277.7 -50.0098L-269.859 -53.1626C-171.474 -92.317 -53.8041 -94.8944 61.4971 -60.3925C176.926 -25.7456 273.84 41.0853 334.311 127.816L339.18 134.764L346.207 130.067C428.336 75.4989 489.234 -6.76862 517.713 -101.634C546.131 -196.403 540.524 -298.62 501.879 -389.385L498.526 -397.15L490.716 -394.032C392.439 -354.89 274.779 -352.318 159.394 -386.857ZM489.108 -374.864C523.252 -289.816 527.542 -194.669 501.112 -106.604C474.635 -18.4488 418.759 58.701 343.601 110.914C280.566 24.4403 182.299 -42.2343 66.4663 -76.9368C-49.2885 -111.622 -168.009 -109.93 -268.284 -72.3585C-302.378 -157.465 -306.655 -252.587 -280.239 -340.645C-253.834 -428.698 -197.951 -505.801 -122.713 -558.17C-59.5636 -471.577 38.7065 -404.922 154.409 -370.249C270.265 -335.587 388.977 -337.261 489.108 -374.864Z" fill="white"/>
<path d="M302.763 154.391L297.175 157.19C201.008 205.399 91.3071 214.968 -11.7148 184.117C-114.709 153.251 -201.137 84.943 -255.025 -8.23913L-258.094 -13.6306L-252.285 -15.8356C-163.261 -49.8519 -56.1481 -51.2072 49.3038 -19.6696C153.271 11.5206 244.313 73.1179 299.1 149.37L302.763 154.391ZM-242.62 -8.12385C-189.916 79.934 -107.046 144.476 -8.66276 173.952C89.7566 203.437 194.473 195.075 286.829 150.462C233.034 78.3985 145.781 20.2799 46.3156 -9.5209C-53.1216 -39.269 -158.008 -38.6915 -242.62 -8.12385Z" fill="white"/>
<path d="M302.763 154.391L293.836 158.882C198.59 206.657 89.9541 216.108 -12.1318 185.518C-114.183 154.957 -199.728 87.2591 -253.126 -5.00957L-258.094 -13.6306L-248.75 -17.1998C-160.598 -50.8925 -54.6062 -52.262 49.7617 -21.0195C152.576 9.82993 242.661 70.8226 296.917 146.324L302.763 154.391ZM-248.516 -10.2545L-247.408 -8.31465C-194.886 82.5585 -110.672 149.128 -10.2261 179.225C90.1904 209.324 197.161 200.008 290.903 152.994L292.865 152.017L291.578 150.191C238.161 75.834 149.337 15.7264 47.857 -14.6916C-55.123 -45.5184 -159.611 -44.2056 -246.432 -11.0385L-248.516 -10.2545ZM287.192 150.576L283.619 152.327C192.161 196.465 88.1689 204.738 -9.16138 175.575C-106.446 146.405 -188.773 82.3005 -240.949 -4.88487L-243.008 -8.29173L-239.228 -9.65994C-155.533 -39.8984 -51.3095 -40.3953 46.7421 -11.0767C144.826 18.3357 231.55 76.0617 284.823 147.371L287.192 150.576ZM-233.226 -4.80248C-181.783 79.2198 -101.71 140.945 -7.27351 169.274C87.1987 197.552 188.019 190.03 277.096 148.134C224.512 79.409 140.129 23.8327 44.8292 -4.73099C-50.397 -33.2583 -151.414 -33.241 -233.226 -4.80248Z" fill="white"/>
</svg>
