<svg width="714" height="249" viewBox="0 0 714 249" fill="none" xmlns="http://www.w3.org/2000/svg">
<path d="M568.109 424.611C449.121 442.397 332.997 423.087 241.11 370.358L233.758 366.148L229.405 373.375C178.295 457.755 158.171 558.154 172.761 655.959C187.346 753.816 235.881 843.913 309.468 909.706L315.777 915.372L321.534 909.184C393.924 831.904 499.326 779.526 618.353 761.714C737.558 743.979 853.693 763.247 945.309 816.025L952.67 820.242L957.033 813.002C1008.16 728.686 1028.28 628.329 1013.71 530.359C999.126 432.502 950.579 342.375 877 276.664L870.664 271.062L864.921 277.206C792.622 354.429 687.228 406.797 568.109 424.611ZM871.618 295.238C938.691 357.689 983.04 441.977 996.574 532.922C1010.1 623.967 992.344 717.556 946.528 796.776C852.701 745.322 735.407 726.771 615.814 744.627C496.298 762.466 389.57 814.49 314.795 891.141C247.742 828.615 203.416 744.343 189.872 653.412C176.321 562.49 194.106 468.94 239.927 389.545C333.909 441.058 451.197 459.59 570.66 441.762C690.258 423.859 796.987 371.856 871.618 295.238Z" fill="white"/>
<path d="M563.128 384.917C671.14 369.062 766.703 322.863 832.12 254.839L839.025 247.644L830.808 241.948C742.862 180.805 636.249 155.647 530.656 171.11C425.219 186.567 330.73 241.232 264.517 325.094L258.353 332.92L267.067 337.797C349.88 384.101 455 400.809 563.128 384.917ZM284.298 327.781C347.421 251.872 435.644 202.233 533.212 187.96C631.012 173.613 730.086 195.739 812.71 250.219C750.842 310.698 659.217 353.591 560.566 368.094C461.839 382.627 361.432 367.904 284.298 327.781Z" fill="white"/>
</svg>
