<svg width="456" height="249" viewBox="0 0 456 249" fill="none" xmlns="http://www.w3.org/2000/svg">
<path d="M305.128 384.917C413.14 369.062 508.703 322.863 574.12 254.839L581.025 247.644L572.808 241.948C484.862 180.805 378.249 155.647 272.656 171.11C167.219 186.567 72.7298 241.232 6.51748 325.094L0.352539 332.92L9.06696 337.797C91.8796 384.101 197 400.809 305.128 384.917ZM26.2981 327.781C89.4206 251.872 177.644 202.233 275.212 187.96C373.012 173.613 472.086 195.739 554.71 250.219C492.842 310.698 401.217 353.591 302.566 368.094C203.839 382.627 103.432 367.904 26.2981 327.781Z" fill="white"/>
</svg>
