<svg width="656" height="351" viewBox="0 0 656 351" fill="none" xmlns="http://www.w3.org/2000/svg">
<path d="M623.394 -386.857C508.139 -421.366 411.253 -488.23 350.517 -575.032L345.654 -581.969L338.641 -577.279C256.496 -522.648 195.583 -440.341 167.191 -345.617C138.773 -250.848 144.381 -148.664 183 -57.8212L186.3 -50.0098L194.141 -53.1626C292.526 -92.317 410.196 -94.8944 525.497 -60.3925C640.926 -25.7456 737.84 41.0853 798.311 127.816L803.18 134.764L810.207 130.067C892.336 75.4989 953.234 -6.76862 981.713 -101.634C1010.13 -196.403 1004.52 -298.62 965.879 -389.385L962.526 -397.15L954.716 -394.032C856.439 -354.89 738.779 -352.318 623.394 -386.857ZM953.108 -374.864C987.252 -289.816 991.542 -194.669 965.112 -106.604C938.635 -18.4488 882.759 58.701 807.601 110.914C744.566 24.4403 646.299 -42.2343 530.466 -76.9368C414.711 -111.622 295.991 -109.93 195.716 -72.3585C161.622 -157.465 157.345 -252.587 183.761 -340.645C210.166 -428.698 266.049 -505.801 341.287 -558.17C404.436 -471.577 502.707 -404.922 618.409 -370.249C734.265 -335.587 852.977 -337.261 953.108 -374.864Z" fill="white"/>
<path d="M766.763 154.391L761.175 157.19C665.008 205.399 555.307 214.968 452.285 184.117C349.291 153.251 262.863 84.943 208.975 -8.23913L205.906 -13.6306L211.715 -15.8356C300.739 -49.8519 407.852 -51.2072 513.304 -19.6696C617.271 11.5206 708.313 73.1179 763.1 149.37L766.763 154.391ZM221.38 -8.12385C274.084 79.934 356.954 144.476 455.337 173.952C553.757 203.437 658.473 195.075 750.829 150.462C697.034 78.3985 609.781 20.2799 510.316 -9.5209C410.878 -39.269 305.992 -38.6915 221.38 -8.12385Z" fill="white"/>
<path d="M766.763 154.391L757.836 158.882C662.59 206.657 553.954 216.108 451.868 185.518C349.817 154.957 264.272 87.2591 210.874 -5.00957L205.906 -13.6306L215.25 -17.1998C303.402 -50.8925 409.394 -52.262 513.762 -21.0195C616.576 9.82993 706.661 70.8226 760.917 146.324L766.763 154.391ZM215.484 -10.2545L216.592 -8.31465C269.114 82.5585 353.328 149.128 453.774 179.225C554.19 209.324 661.161 200.008 754.903 152.994L756.865 152.017L755.578 150.191C702.161 75.834 613.337 15.7264 511.857 -14.6916C408.877 -45.5184 304.389 -44.2056 217.568 -11.0385L215.484 -10.2545ZM751.192 150.576L747.619 152.327C656.161 196.465 552.169 204.738 454.839 175.575C357.554 146.405 275.227 82.3005 223.051 -4.88487L220.992 -8.29173L224.772 -9.65994C308.467 -39.8984 412.69 -40.3953 510.742 -11.0767C608.826 18.3357 695.55 76.0617 748.823 147.371L751.192 150.576ZM230.774 -4.80248C282.217 79.2198 362.29 140.945 456.726 169.274C551.199 197.552 652.019 190.03 741.096 148.134C688.512 79.409 604.129 23.8327 508.829 -4.73099C413.603 -33.2583 312.586 -33.241 230.774 -4.80248Z" fill="white"/>
</svg>
