<svg width="685" height="379" viewBox="0 0 685 379" fill="none" xmlns="http://www.w3.org/2000/svg">
<path d="M159.394 411.143C44.1394 376.634 -52.7466 309.77 -113.483 222.968L-118.346 216.031L-125.359 220.721C-207.504 275.352 -268.417 357.659 -296.809 452.383C-325.227 547.152 -319.619 649.336 -281 740.179L-277.7 747.99L-269.859 744.837C-171.474 705.683 -53.8041 703.106 61.4971 737.608C176.926 772.254 273.84 839.085 334.311 925.816L339.18 932.764L346.207 928.067C428.336 873.499 489.234 791.231 517.713 696.366C546.131 601.597 540.524 499.38 501.879 408.615L498.526 400.85L490.716 403.968C392.439 443.11 274.779 445.682 159.394 411.143ZM489.108 423.136C523.252 508.184 527.542 603.331 501.112 691.396C474.635 779.551 418.759 856.701 343.601 908.914C280.566 822.44 182.299 755.766 66.4663 721.063C-49.2885 686.378 -168.009 688.07 -268.284 725.642C-302.378 640.535 -306.655 545.413 -280.239 457.355C-253.834 369.302 -197.951 292.199 -122.713 239.83C-59.5636 326.423 38.7065 393.078 154.409 427.751C270.265 462.413 388.977 460.739 489.108 423.136Z" fill="white"/>
<path d="M171.768 373.1C276.268 404.688 382.406 403.519 470.542 369.775L479.851 366.2L474.837 357.55C421.246 264.808 335.455 196.697 233.311 165.783C131.312 134.93 22.5448 144.218 -73.0473 191.957L-81.9551 196.418L-76.1426 204.539C-20.8858 281.666 67.1473 341.496 171.768 373.1ZM-56.2876 202.802C33.1257 160.946 134.084 153.542 228.459 182.12C323.074 210.73 403.331 272.891 454.94 357.339C373.224 385.763 272.057 385.615 176.604 356.784C81.0696 327.949 -3.54192 271.92 -56.2876 202.802Z" fill="white"/>
</svg>
